<svg width="100" height="24" viewBox="0 0 100 24" fill="none" xmlns="http://www.w3.org/2000/svg">
<path d="M5.81672 21.1678C2.61068 21.1678 0 18.6161 0 15.4794C0 12.3428 2.60867 9.79109 5.81672 9.79109C9.44915 9.79109 16.3922 12.0058 16.3922 15.4794C16.3922 18.9531 9.44714 21.1678 5.81672 21.1678ZM5.81672 11.0461C3.31263 11.0461 1.27517 13.0348 1.27517 15.4775C1.27517 17.9202 3.31263 19.9088 5.81672 19.9088C7.57259 19.9088 9.92985 19.3735 11.8185 18.5447C13.9143 17.6247 15.117 16.5065 15.117 15.4775C15.117 14.4465 13.9143 13.3302 11.8185 12.4102C9.92784 11.5815 7.57259 11.0461 5.81672 11.0461Z" fill="#7A7C81"/>
<path d="M64.1121 11.942C64.1443 11.946 64.1786 11.936 64.2048 11.9142C64.231 11.8924 64.2451 11.8627 64.2471 11.829L64.2935 10.7032C64.2995 10.5545 64.1947 10.4257 64.0476 10.3999C62.923 10.1938 61.8972 10.7091 61.3753 11.5654V10.834C61.3753 10.6695 61.2402 10.5367 61.073 10.5367H60.1237C59.9565 10.5367 59.8214 10.6695 59.8214 10.834V17.7752C59.8214 17.9398 59.9565 18.0726 60.1237 18.0726H61.073C61.2402 18.0726 61.3753 17.9398 61.3753 17.7752V14.2888C61.3753 13.494 61.5566 12.9033 61.9154 12.5307C62.4373 11.9876 63.3986 11.8647 64.1121 11.942Z" fill="#7A7C81"/>
<path d="M32.5501 18.0744C32.3831 18.0744 32.2482 17.9416 32.2482 17.7771V10.8361C32.2482 10.6716 32.3831 10.5388 32.5501 10.5388H33.4978C33.6648 10.5388 33.7996 10.6716 33.7996 10.8361V17.7771C33.7996 17.9416 33.6648 18.0744 33.4978 18.0744H32.5501ZM33.0229 8.97502C32.4434 8.97502 31.9706 8.50529 31.9706 7.93645C31.9706 7.36762 32.4454 6.89789 33.0229 6.89789C33.6044 6.89789 34.0773 7.37158 34.0773 7.93645C34.0773 8.50925 33.5984 8.97502 33.0229 8.97502Z" fill="#7A7C81"/>
<path d="M65.9258 18.0737C65.7587 18.0737 65.6238 17.9409 65.6238 17.7764V10.8351C65.6238 10.6706 65.7587 10.5378 65.9258 10.5378H66.8742C67.0413 10.5378 67.1762 10.6706 67.1762 10.8351V17.7764C67.1762 17.9409 67.0413 18.0737 66.8742 18.0737H65.9258Z" fill="#7A7C81"/>
<path d="M81.6986 18.0724C81.6121 18.0724 81.5316 18.0368 81.4732 17.9734L78.1535 14.3197V17.7752C78.1535 17.9397 78.0186 18.0724 77.8515 18.0724H76.9033C76.7362 18.0724 76.6013 17.9397 76.6013 17.7752V7.17692C76.6013 7.01247 76.7362 6.87971 76.9033 6.87971H77.8515C78.0186 6.87971 78.1535 7.01247 78.1535 7.17692V13.6778L81.2215 10.6443C81.2779 10.5888 81.3544 10.5571 81.4349 10.5571H83.1743C83.2226 10.5571 83.2669 10.5868 83.285 10.6304C83.3031 10.676 83.2931 10.7255 83.2568 10.7592L79.8928 13.9809L83.5729 17.8743C83.6051 17.908 83.6152 17.9595 83.5951 18.0031C83.5749 18.0467 83.5326 18.0744 83.4843 18.0744H81.6986V18.0724Z" fill="#7A7C81"/>
<path d="M50.9217 18.0744C50.7545 18.0744 50.6196 17.9416 50.6196 17.7772V13.6354C50.6196 12.5454 50.0756 11.7864 48.9616 11.7864C47.5535 11.7864 46.923 12.7951 46.923 14.1982V17.7772C46.923 17.9416 46.788 18.0744 46.6208 18.0744H45.672C45.5048 18.0744 45.3698 17.9416 45.3698 17.7772V7.17697C45.3698 7.01249 45.5048 6.87971 45.672 6.87971H46.6208C46.788 6.87971 46.923 7.01249 46.923 7.17697V11.5546C47.3944 10.7381 48.4117 10.3517 49.3746 10.3517C51.0386 10.3517 52.1707 11.3881 52.1707 13.243V17.7772C52.1707 17.9416 52.0357 18.0744 51.8685 18.0744H50.9217Z" fill="#7A7C81"/>
<path d="M24.5848 18.0724C24.418 18.0724 24.2833 17.9397 24.2833 17.7752V7.17692C24.2833 7.01247 24.418 6.87971 24.5848 6.87971H25.6258C25.7926 6.87971 25.9273 7.01247 25.9273 7.17692V16.5468H30.7827C30.9495 16.5468 31.0842 16.6795 31.0842 16.844V17.7772C31.0842 17.9417 30.9495 18.0744 30.7827 18.0744H24.5848V18.0724Z" fill="#7A7C81"/>
<path d="M75.2705 16.8615C75.3288 16.9171 75.359 16.9944 75.359 17.0757C75.357 17.155 75.3228 17.2323 75.2645 17.2878C74.5267 17.9779 73.6139 18.2734 72.5403 18.2734C70.2503 18.2734 68.5434 16.7445 68.5434 14.3472C68.5434 12.0628 70.1156 10.3734 72.5403 10.3734C73.5717 10.3734 74.5226 10.6907 75.2826 11.3807C75.3449 11.4382 75.3811 11.5175 75.3811 11.6008C75.3791 11.6841 75.3449 11.7634 75.2826 11.8209L74.6051 12.4297C74.4925 12.5308 74.3216 12.5348 74.205 12.4376C73.7385 12.047 73.1294 11.807 72.4779 11.807C70.9741 11.807 70.188 13.0047 70.188 14.3769C70.188 15.7174 71.1048 16.8377 72.5563 16.8377C73.1515 16.8377 73.7305 16.6414 74.1909 16.2349C74.2552 16.1814 74.3055 16.1378 74.4121 16.1378C74.4965 16.1378 74.5709 16.1715 74.6252 16.225L75.2705 16.8615Z" fill="#7A7C81"/>
<path d="M85.8679 12.5555C85.8679 12.1554 86.2847 11.7869 87.0699 11.7869C87.6116 11.7869 88.1129 12.0088 88.4854 12.3317C88.5921 12.4248 88.7532 12.4327 88.868 12.3455L89.5546 11.8344C89.621 11.7849 89.6633 11.7116 89.6734 11.6304C89.6835 11.5492 89.6573 11.4679 89.6029 11.4065C89.0311 10.7409 88.2076 10.3546 87.1525 10.3546C85.6021 10.3546 84.2249 11.1985 84.2249 12.71C84.2249 13.4212 84.5672 14.2275 85.7028 14.6138C86.8605 15.008 88.3485 15.01 88.3485 15.949C88.3485 16.5493 87.5934 16.8286 86.8827 16.8286C86.327 16.8286 85.6685 16.5829 85.2095 16.1491C85.0987 16.0441 84.9276 16.0382 84.8088 16.1333L84.1584 16.6602C84.096 16.7117 84.0557 16.785 84.0497 16.8663C84.0436 16.9475 84.0698 17.0267 84.1242 17.0862C84.7745 17.8092 85.7249 18.2728 86.8666 18.2728C88.5056 18.2728 89.9996 17.4903 89.9996 15.8777C89.9956 12.9398 85.8679 14.1463 85.8679 12.5555Z" fill="#7A7C81"/>
<path d="M56.3352 15.8066C56.3251 15.6063 56.3191 15.4 56.3191 15.1918V11.8861H58.0676C58.2348 11.8861 58.3698 11.7532 58.3698 11.5886V10.843C58.3698 10.6784 58.2348 10.5455 58.0676 10.5455H56.3191V8.7608C56.3191 8.59621 56.1841 8.46335 56.0169 8.46335H55.0682C54.901 8.46335 54.766 8.59621 54.766 8.7608V10.5455H53.4143C53.2471 10.5455 53.1122 10.6784 53.1122 10.843V11.5886C53.1122 11.7532 53.2471 11.8861 53.4143 11.8861H54.766V15.6935C54.766 16.6117 54.7982 17.3533 55.4388 17.8412C56.162 18.3924 57.5257 18.3508 58.2227 18.0871C58.3395 18.0434 58.4161 17.9324 58.4161 17.8094V16.812C58.4161 16.7723 58.3959 16.7366 58.3637 16.7148C58.3315 16.693 58.2912 16.687 58.2529 16.7009C57.29 17.046 56.3896 16.8734 56.3352 15.8066Z" fill="#7A7C81"/>
<path d="M42.2163 10.5427C42.0492 10.5427 41.9142 10.6753 41.9142 10.8397V11.5247C41.3242 10.7625 40.279 10.3546 39.3205 10.3546C36.9382 10.3546 35.4279 12.1009 35.4279 14.3065C35.4279 16.5221 37.0792 18.1654 39.3205 18.1654C40.3274 18.1654 41.3403 17.7734 41.9142 16.924C41.9142 17.9654 42.2103 20.3908 39.256 20.3908C38.3176 20.4067 37.4235 20.0562 36.757 19.4345C36.6965 19.3771 36.612 19.3474 36.5294 19.3534C36.4448 19.3593 36.3663 19.3989 36.3139 19.4642L35.6977 20.2206C35.595 20.3453 35.6131 20.5294 35.738 20.6324C36.6522 21.3927 37.7034 21.8223 39.2883 21.8223C41.7088 21.8223 43.4669 20.2978 43.4669 17.9496V10.8417C43.4669 10.6773 43.3319 10.5447 43.1648 10.5447L42.2163 10.5427ZM39.4937 16.7319C37.9793 16.7319 37.0731 15.7578 37.0731 14.3065C37.0731 12.7642 38.076 11.7861 39.4937 11.7861C40.9194 11.7861 41.9142 12.7721 41.9142 14.3065C41.9142 15.7578 41.01 16.7319 39.4937 16.7319Z" fill="#7A7C81"/>
<path d="M2.16607 11.0492C2.43192 10.0429 2.98376 8.56705 3.24155 7.947C4.40968 5.12411 5.74094 3.43833 6.80434 3.43833C8.1638 3.43833 9.09428 6.17997 9.45076 7.47553C9.86967 7.35271 10.2825 7.24376 10.6813 7.15461C10.1194 5.10034 8.9694 2.18237 6.79628 2.18237C4.29287 2.18237 2.30303 6.386 1.14094 10.0845C0.587088 11.8495 0.218526 13.4997 0.0735168 14.5239C0.317212 13.1253 1.08253 11.901 2.16607 11.0492Z" fill="#7A7C81"/>
<path d="M10.0547 10.4647C10.508 10.5938 10.9592 10.7387 11.4023 10.9016C11.2971 10.0675 11.1554 9.20953 10.9753 8.37146C10.5788 8.45884 10.164 8.57006 9.73907 8.69517C9.8625 9.27904 9.96771 9.87285 10.0547 10.4647Z" fill="#7A7C81"/>
<path d="M11.5498 12.2923C11.1235 12.1177 10.679 11.957 10.2244 11.8122C10.3921 13.4352 10.4244 14.9234 10.3395 15.8678C10.2486 16.8877 9.79399 17.8064 9.11105 18.5108C9.89502 17.7905 10.8043 16.6873 11.6468 15.4631C11.6812 14.6476 11.6569 13.5325 11.5498 12.2923Z" fill="#7A7C81"/>
<path d="M10.2844 19.1264C11.5702 17.8298 13.0533 15.7916 14.138 13.799C13.8522 13.5492 13.5081 13.3053 13.1077 13.0674C12.019 15.1095 10.4474 17.2588 9.18563 18.4484C8.20764 19.3703 7.10287 19.9076 5.78479 19.9116C7.21556 19.9175 8.90189 19.5686 10.2844 19.1264Z" fill="#7A7C81"/>
<path d="M5.81672 21.1678C2.61068 21.1678 0 18.6161 0 15.4794C0 12.3428 2.60867 9.79109 5.81672 9.79109C9.44915 9.79109 16.3922 12.0058 16.3922 15.4794C16.3922 18.9531 9.44714 21.1678 5.81672 21.1678ZM5.81672 11.0461C3.31263 11.0461 1.27517 13.0348 1.27517 15.4775C1.27517 17.9202 3.31263 19.9088 5.81672 19.9088C7.57259 19.9088 9.92985 19.3735 11.8185 18.5447C13.9143 17.6247 15.117 16.5065 15.117 15.4775C15.117 14.4465 13.9143 13.3302 11.8185 12.4102C9.92784 11.5815 7.57259 11.0461 5.81672 11.0461Z" fill="#7A7C81"/>
<path d="M5.81956 9.79254C6.09898 9.79254 6.4005 9.80637 6.7161 9.83406C8.85289 8.88487 11.2791 8.13541 12.8551 8.13541C13.3074 8.13936 13.9165 8.1967 14.1939 8.54672C14.4451 8.86509 14.421 9.41088 14.3547 9.81231C14.2542 10.4293 14.0029 11.159 13.6531 11.9381C14.0471 12.1675 14.4331 12.4325 14.7085 12.65C15.1587 11.6889 15.4864 10.7753 15.611 10.0101C15.7698 9.03516 15.617 8.26395 15.1507 7.72014C14.5939 7.06758 13.7235 6.88565 12.8571 6.87971C10.8952 6.87971 7.93223 7.84274 5.47985 9.01736C4.38834 9.53744 3.35311 10.1683 2.38422 10.8901C3.3511 10.2019 4.53709 9.79254 5.81956 9.79254Z" fill="#7A7C81"/>
<path d="M66.3997 8.97294C65.8202 8.97294 65.3474 8.50368 65.3474 7.93542C65.3474 7.36715 65.8222 6.89789 66.3997 6.89789C66.9812 6.89789 67.4541 7.37111 67.4541 7.93542C67.4521 8.50764 66.9752 8.97294 66.3997 8.97294Z" fill="#7A7C81"/>
</svg>
